<svg xmlns="http://www.w3.org/2000/svg" xmlns:xlink="http://www.w3.org/1999/xlink" width="1000" zoomAndPan="magnify" viewBox="0 0 750 749.999995" height="1000" preserveAspectRatio="xMidYMid meet" version="1.0"><defs><clipPath id="6ac9ad2136"><path d="M 264 0 L 750 0 L 750 750 L 264 750 Z M 264 0 " clip-rule="nonzero"/></clipPath><clipPath id="45cf6d5e46"><path d="M 681.292969 -215.769531 L 1858.347656 508.902344 L 1387.683594 1273.382812 L 210.628906 548.710938 Z M 681.292969 -215.769531 " clip-rule="nonzero"/></clipPath><clipPath id="fb4a640c6d"><path d="M 604.222656 -90.59375 L 1085.777344 205.882812 L 692.179688 845.183594 L 210.628906 548.710938 Z M 604.222656 -90.59375 " clip-rule="nonzero"/></clipPath><clipPath id="c145968990"><path d="M 681.300781 -215.785156 L 1858.355469 508.890625 L 1387.691406 1273.371094 L 210.636719 548.695312 Z M 681.300781 -215.785156 " clip-rule="nonzero"/></clipPath><clipPath id="7bc789b66f"><path d="M 300 0 L 750 0 L 750 750 L 300 750 Z M 300 0 " clip-rule="nonzero"/></clipPath><clipPath id="b07932a727"><path d="M 681.292969 -215.769531 L 1858.347656 508.902344 L 1387.683594 1273.382812 L 210.628906 548.710938 Z M 681.292969 -215.769531 " clip-rule="nonzero"/></clipPath><clipPath id="0a0bfe10e1"><path d="M 604.222656 -90.59375 L 1085.777344 205.882812 L 692.179688 845.183594 L 210.628906 548.710938 Z M 604.222656 -90.59375 " clip-rule="nonzero"/></clipPath><clipPath id="e4f7dd2b41"><path d="M 681.300781 -215.785156 L 1858.355469 508.890625 L 1387.691406 1273.371094 L 210.636719 548.695312 Z M 681.300781 -215.785156 " clip-rule="nonzero"/></clipPath><clipPath id="9691c366d7"><path d="M 335 0 L 750 0 L 750 750 L 335 750 Z M 335 0 " clip-rule="nonzero"/></clipPath><clipPath id="89dc06f9c2"><path d="M 681.292969 -215.769531 L 1858.347656 508.902344 L 1387.683594 1273.382812 L 210.628906 548.710938 Z M 681.292969 -215.769531 " clip-rule="nonzero"/></clipPath><clipPath id="9603b5641e"><path d="M 604.222656 -90.59375 L 1085.777344 205.882812 L 692.179688 845.183594 L 210.628906 548.710938 Z M 604.222656 -90.59375 " clip-rule="nonzero"/></clipPath><clipPath id="ef288e1623"><path d="M 681.300781 -215.785156 L 1858.355469 508.890625 L 1387.691406 1273.371094 L 210.636719 548.695312 Z M 681.300781 -215.785156 " clip-rule="nonzero"/></clipPath><clipPath id="5667e601f0"><path d="M 370 0 L 750 0 L 750 750 L 370 750 Z M 370 0 " clip-rule="nonzero"/></clipPath><clipPath id="4d6e95a867"><path d="M 681.292969 -215.769531 L 1858.347656 508.902344 L 1387.683594 1273.382812 L 210.628906 548.710938 Z M 681.292969 -215.769531 " clip-rule="nonzero"/></clipPath><clipPath id="0bfd31dba4"><path d="M 604.222656 -90.59375 L 1085.777344 205.882812 L 692.179688 845.183594 L 210.628906 548.710938 Z M 604.222656 -90.59375 " clip-rule="nonzero"/></clipPath><clipPath id="ca7f666b79"><path d="M 681.300781 -215.785156 L 1858.355469 508.890625 L 1387.691406 1273.371094 L 210.636719 548.695312 Z M 681.300781 -215.785156 " clip-rule="nonzero"/></clipPath><clipPath id="1bc7d37fee"><path d="M 405 0 L 750 0 L 750 750 L 405 750 Z M 405 0 " clip-rule="nonzero"/></clipPath><clipPath id="bfced64b7f"><path d="M 681.292969 -215.769531 L 1858.347656 508.902344 L 1387.683594 1273.382812 L 210.628906 548.710938 Z M 681.292969 -215.769531 " clip-rule="nonzero"/></clipPath><clipPath id="865fbddcad"><path d="M 604.222656 -90.59375 L 1085.777344 205.882812 L 692.179688 845.183594 L 210.628906 548.710938 Z M 604.222656 -90.59375 " clip-rule="nonzero"/></clipPath><clipPath id="3bdb9fa0cd"><path d="M 681.300781 -215.785156 L 1858.355469 508.890625 L 1387.691406 1273.371094 L 210.636719 548.695312 Z M 681.300781 -215.785156 " clip-rule="nonzero"/></clipPath></defs><g clip-path="url(#6ac9ad2136)"><g clip-path="url(#45cf6d5e46)"><g clip-path="url(#fb4a640c6d)"><g clip-path="url(#c145968990)"><path stroke-linecap="butt" transform="matrix(0.697772, 0.429594, -0.429469, 0.697569, 681.285905, -215.762561)" fill="none" stroke-linejoin="miter" d="M 87.950597 1.398641 C 94.768522 10.5386 103.480316 22.992076 112.629925 38.339817 C 119.448944 49.791822 139.811265 85.158147 155.179919 134.849801 C 177.979445 208.529806 176.569865 270.872552 175.688848 290.852045 C 172.578559 361.409914 153.53035 413.35844 139.688948 450.1728 C 128.809729 479.120728 128.011797 474.549906 79.951042 575.791739 C 36.491074 667.318046 30.288003 685.49047 27.100103 695.282247 C 6.597828 758.138704 2.980456 804.588104 2.159081 829.139508 C 0.668158 873.859362 6.699706 899.958234 8.630406 907.779312 C 12.172054 922.128835 19.049176 949.028521 38.418991 978.252709 C 45.058766 988.258355 69.260726 1022.850406 115.191484 1047.359196 C 158.088491 1070.258824 196.70979 1071.958848 225.662022 1073.229729 C 271.229997 1075.237927 305.640346 1067.049272 338.682811 1058.930247 C 369.510827 1051.351806 397.078968 1040.55072 452.209312 1018.929807 C 511.760302 995.577631 518.641205 990.348903 562.680671 975.020658 C 598.310028 962.609405 620.348831 955.039935 652.041061 949.320389 C 677.718194 944.678896 707.339647 939.55145 746.337633 943.018624 C 758.772304 944.130103 800.308291 948.610175 848.470305 970.759294 C 880.518347 985.500706 901.501997 1001.629844 906.000534 1005.13683 C 930.258648 1024.048443 947.050017 1043.789736 957.910325 1058.587936 " stroke="#d8d8d8" stroke-width="2" stroke-opacity="1" stroke-miterlimit="10"/></g></g></g></g><g clip-path="url(#7bc789b66f)"><g clip-path="url(#b07932a727)"><g clip-path="url(#0a0bfe10e1)"><g clip-path="url(#e4f7dd2b41)"><path stroke-linecap="butt" transform="matrix(0.697772, 0.429594, -0.429469, 0.697569, 681.285905, -215.762561)" fill="none" stroke-linejoin="miter" d="M 119.438328 34.421294 C 128.430964 47.267396 139.771863 64.911117 151.098957 86.852791 C 177.380123 137.747766 187.451952 180.688984 190.249669 193.402326 C 193.369362 207.602923 201.018631 245.898673 199.778064 296.209748 C 199.50051 307.401095 197.751068 361.68783 175.948211 429.99868 C 166.129953 460.779535 154.87929 484.558002 132.381401 532.129618 C 105.59864 588.729425 103.242036 585.919273 86.760948 622.337738 C 66.921898 666.188797 44.202498 716.411142 38.080538 783.35832 C 35.218376 814.699137 32.389384 849.441008 45.569817 891.957361 C 51.601262 911.398128 66.518199 957.408907 109.571764 993.069272 C 157.019895 1032.367851 210.621608 1035.868296 243.36197 1038.009369 C 306.399498 1042.133002 358.92944 1024.40945 408.468016 1007.710541 C 414.060087 1005.817845 432.057778 998.849934 468.039104 984.900369 C 568.271303 946.048188 567.371263 944.63134 590.249961 937.58059 C 631.430181 924.892363 670.758545 912.77901 723.360469 915.792007 C 743.189917 916.930099 786.368012 921.440453 835.020578 944.732218 C 843.208776 948.649255 885.619402 969.412502 923.530106 1009.068839 C 929.190285 1014.990725 933.911582 1020.460452 936.131347 1023.030087 C 959.909024 1050.620483 975.6297 1075.971384 985.490004 1093.838145 " stroke="#d8d8d8" stroke-width="2" stroke-opacity="1" stroke-miterlimit="10"/></g></g></g></g><g clip-path="url(#9691c366d7)"><g clip-path="url(#89dc06f9c2)"><g clip-path="url(#9603b5641e)"><g clip-path="url(#ef288e1623)"><path stroke-linecap="butt" transform="matrix(0.697772, 0.429594, -0.429469, 0.697569, 681.285905, -215.762561)" fill="none" stroke-linejoin="miter" d="M 149.399958 68.120596 C 155.972666 76.980386 164.299314 89.071872 172.890129 104.030168 C 177.181478 111.511816 192.561846 138.920229 205.059417 177.562067 C 211.779765 198.331316 226.989515 246.782477 225.660859 310.839325 C 224.35928 372.902767 208.169666 419.008587 196.719807 450.749455 C 185.882979 480.830436 171.792265 509.499422 143.610837 566.837393 C 122.930702 608.921709 119.671595 612.558353 109.912736 635.950083 C 97.900749 664.722049 83.81087 699.040724 76.889427 744.55142 C 71.88017 777.460904 66.249009 814.471655 78.589318 859.952509 C 84.088137 880.219673 95.669504 920.892899 132.038706 954.588399 C 174.59085 994.018242 225.100278 999.871036 251.531006 1002.929962 C 305.890626 1009.217142 350.470821 996.059004 397.568986 982.162163 C 412.129671 977.859692 428.83768 971.579628 462.248698 959.011378 C 552.887525 924.919256 556.368417 918.441321 595.701033 907.271716 C 629.51053 897.661155 667.391633 886.898273 717.909055 890.590219 C 776.73955 894.89121 817.741483 916.230803 825.819831 920.551479 C 865.839573 941.941566 891.518602 969.710579 903.779957 983.192368 C 912.13131 992.367942 918.618939 1000.580151 923.179839 1006.680639 " stroke="#d8d8d8" stroke-width="2" stroke-opacity="1" stroke-miterlimit="10"/></g></g></g></g><g clip-path="url(#5667e601f0)"><g clip-path="url(#4d6e95a867)"><g clip-path="url(#0bfd31dba4)"><g clip-path="url(#ca7f666b79)"><path stroke-linecap="butt" transform="matrix(0.697772, 0.429594, -0.429469, 0.697569, 681.285905, -215.762561)" fill="none" stroke-linejoin="miter" d="M 179.68906 101.142243 C 186.437774 110.879206 193.212597 121.540858 199.781489 133.141302 C 222.567672 173.409885 232.879403 207.372468 235.181118 215.177851 C 240.510224 233.259211 250.778861 273.391321 249.819417 325.478 C 249.581253 338.397828 247.939427 390.512762 224.970447 452.799595 C 221.869089 461.222121 217.227856 471.690532 207.951948 492.628914 C 182.299056 550.509629 171.379044 567.739887 155.519194 602.930196 C 137.400204 643.118057 124.242767 672.321051 115.690537 713.57224 C 108.492075 748.300317 100.277423 787.89886 113.311537 835.780339 C 117.859918 852.511368 127.737996 887.161 158.252726 917.820571 C 193.919679 953.667689 236.359114 962.508008 258.679534 966.838285 C 317.210715 978.211369 365.910505 963.378574 414.938823 948.461054 C 439.358357 941.021369 430.869404 941.690998 501.410636 914.756838 C 604.869133 875.261714 631.379513 870.70065 644.388839 868.798324 C 673.088246 864.6195 706.041506 860.139288 747.542946 869.820455 C 755.499932 871.67916 795.267774 881.408789 837.751677 912.368953 C 868.660761 934.901139 888.631171 959.661997 900.390439 976.71208 " stroke="#d8d8d8" stroke-width="2" stroke-opacity="1" stroke-miterlimit="10"/></g></g></g></g><g clip-path="url(#1bc7d37fee)"><g clip-path="url(#bfced64b7f)"><g clip-path="url(#865fbddcad)"><g clip-path="url(#3bdb9fa0cd)"><path stroke-linecap="butt" transform="matrix(0.697772, 0.429594, -0.429469, 0.697569, 681.285905, -215.762561)" fill="none" stroke-linejoin="miter" d="M 208.889655 133.568684 C 216.310377 142.942194 223.900029 153.718017 231.100541 165.999044 C 252.852337 203.040782 260.479217 235.660919 265.059222 255.872351 C 269.748951 276.598589 278.979658 319.12824 272.460146 373.832682 C 267.61953 414.41084 256.281576 443.568479 244.37146 474.170443 C 232.459783 504.778968 228.991551 505.929291 201.988455 563.280769 C 177.331323 615.648422 165.001197 641.838809 157.310823 668.727708 C 148.819013 698.38929 138.709641 735.100425 144.028378 782.088768 C 146.679597 805.442363 150.092642 835.500143 171.092034 866.089485 C 199.841392 907.960699 242.06898 922.441691 257.902362 927.619881 C 293.689022 939.330913 323.26849 936.60924 351.089338 933.749846 C 366.091247 932.210744 395.091128 928.210863 491.002364 891.370143 C 563.257674 863.609971 572.459777 856.022179 611.768251 847.460152 C 639.029758 841.518143 666.4612 835.77947 702.922649 839.291207 C 758.552852 844.650311 796.731608 867.851735 805.298933 873.24883 C 841.420125 895.981452 862.870324 924.238038 871.680366 936.059829 C 875.540576 941.23108 878.558665 945.688989 880.621457 948.831278 " stroke="#d8d8d8" stroke-width="2" stroke-opacity="1" stroke-miterlimit="10"/></g></g></g></g></svg>